<svg xmlns="http://www.w3.org/2000/svg" xmlns:xlink="http://www.w3.org/1999/xlink" width="2048" zoomAndPan="magnify" viewBox="0 0 1500 1499.999932" height="2048" preserveAspectRatio="xMidYMid meet" version="1.0"><defs><filter x="0%" y="0%" width="100%" height="100%" id="4929d6998e"><feColorMatrix values="0 0 0 0 1 0 0 0 0 1 0 0 0 0 1 0 0 0 1 0" color-interpolation-filters="sRGB"/></filter><g/><clipPath id="9377485660"><path d="M 0 19.980469 L 1500 19.980469 L 1500 1500 L 0 1500 Z M 0 19.980469 " clip-rule="nonzero"/></clipPath><clipPath id="a824db2698"><path d="M 0 0.980469 L 1500 0.980469 L 1500 1481 L 0 1481 Z M 0 0.980469 " clip-rule="nonzero"/></clipPath><clipPath id="06914b1f92"><rect x="0" width="1500" y="0" height="1481"/></clipPath><clipPath id="8e5eb7b950"><path d="M 0.00390625 19.980469 L 1500 19.980469 L 1500 1500 L 0.00390625 1500 Z M 0.00390625 19.980469 " clip-rule="nonzero"/></clipPath><mask id="af7cdd963b"><g filter="url(#4929d6998e)"><rect x="-150" width="1800" fill="#000000" y="-149.999993" height="1799.999918" fill-opacity="0.15"/></g></mask><clipPath id="9777e89846"><rect x="0" width="463" y="0" height="481"/></clipPath><clipPath id="86e715f358"><rect x="0" width="468" y="0" height="165"/></clipPath><clipPath id="03f154e659"><rect x="0" width="1074" y="0" height="165"/></clipPath></defs><g clip-path="url(#9377485660)"><g transform="matrix(1, 0, 0, 1, 0, 19)"><g clip-path="url(#06914b1f92)"><g clip-path="url(#a824db2698)"><path fill="#ffffff" d="M 0 0.980469 L 1533.785156 0.980469 L 1533.785156 1517 L 0 1517 Z M 0 0.980469 " fill-opacity="1" fill-rule="nonzero"/></g></g></g></g><g clip-path="url(#8e5eb7b950)"><path stroke-linecap="butt" transform="matrix(0.75, 0, 0, 0.75, 0.000034, 19.98115)" fill="none" stroke-linejoin="miter" d="M 0.005163 -0.000908576 L 2047.994925 -0.000908576 L 2047.994925 2021.343017 L 0.005163 2021.343017 Z M 0.005163 -0.000908576 " stroke="#c4b67c" stroke-width="174" stroke-opacity="1" stroke-miterlimit="4"/></g><g mask="url(#af7cdd963b)"><g transform="matrix(1, 0, 0, 1, 916, 506)"><g clip-path="url(#9777e89846)"><path fill="#146049" d="M 429.933594 267.710938 L 260.539062 240.511719 L 430.457031 213.226562 C 433.988281 212.640625 437.648438 211.507812 441.003906 209.808594 C 458.679688 200.851562 465.761719 179.253906 456.785156 161.578125 C 447.828125 143.90625 426.230469 136.84375 408.554688 145.800781 L 255.527344 223.382812 L 376.957031 101.429688 C 379.460938 98.878906 381.75 95.808594 383.472656 92.472656 C 392.515625 74.84375 385.519531 53.203125 367.890625 44.179688 C 350.238281 35.136719 328.621094 42.132812 319.597656 59.761719 L 241.382812 212.464844 L 267.949219 42.4375 C 268.492188 38.90625 268.535156 35.070312 267.949219 31.367188 C 264.898438 11.773438 246.523438 -1.605469 226.957031 1.445312 C 207.363281 4.496094 193.984375 22.867188 197.035156 42.4375 L 223.511719 211.964844 L 145.058594 58.78125 C 143.421875 55.601562 141.199219 52.484375 138.542969 49.824219 C 124.550781 35.789062 101.84375 35.726562 87.785156 49.714844 C 73.75 63.707031 73.683594 86.414062 87.675781 100.472656 L 208.734375 222.054688 L 55.226562 144.253906 C 52.023438 142.664062 48.40625 141.421875 44.679688 140.832031 C 25.109375 137.652344 6.695312 150.964844 3.554688 170.535156 C 0.417969 190.105469 13.734375 208.519531 33.304688 211.660156 L 202.699219 238.855469 L 32.78125 266.140625 C 29.25 266.730469 25.589844 267.863281 22.230469 269.5625 C 4.558594 278.519531 -2.523438 300.117188 6.453125 317.792969 C 15.410156 335.464844 37.007812 342.546875 54.683594 333.570312 L 207.710938 255.984375 L 86.28125 377.941406 C 83.777344 380.488281 81.488281 383.5625 79.765625 386.898438 C 70.722656 404.527344 77.71875 426.167969 95.347656 435.191406 C 112.976562 444.234375 134.617188 437.238281 143.640625 419.609375 L 221.855469 266.90625 L 195.289062 436.933594 C 194.746094 440.464844 194.703125 444.300781 195.289062 448.003906 C 198.339844 467.597656 216.710938 480.976562 236.28125 477.925781 C 255.875 474.875 269.253906 456.503906 266.203125 436.933594 L 239.726562 267.40625 L 318.179688 420.589844 C 319.816406 423.769531 322.039062 426.886719 324.695312 429.546875 C 338.6875 443.578125 361.394531 443.644531 375.453125 429.65625 C 389.488281 415.664062 389.550781 392.953125 375.5625 378.898438 L 254.5 257.316406 L 408.011719 335.117188 C 411.214844 336.707031 414.832031 337.949219 418.558594 338.539062 C 438.128906 341.675781 456.542969 328.359375 459.683594 308.789062 C 462.820312 289.265625 449.503906 270.871094 429.933594 267.710938 Z M 429.933594 267.710938 " fill-opacity="1" fill-rule="nonzero"/></g></g></g><g transform="matrix(1, 0, 0, 1, 534, 783)"><g clip-path="url(#86e715f358)"><g fill="#0b3d2e" fill-opacity="1"><g transform="translate(0.728168, 137.747673)"><g><path d="M 54.9375 1.375 C 48.8125 1.375 42.847656 0.164062 37.046875 -2.25 C 31.253906 -4.675781 26.03125 -8.082031 21.375 -12.46875 C 16.71875 -16.851562 13.019531 -22.054688 10.28125 -28.078125 C 7.539062 -34.109375 6.171875 -40.726562 6.171875 -47.9375 C 6.171875 -55.15625 7.539062 -61.773438 10.28125 -67.796875 C 13.019531 -73.828125 16.71875 -79.035156 21.375 -83.421875 C 26.03125 -87.804688 31.253906 -91.207031 37.046875 -93.625 C 42.847656 -96.050781 48.8125 -97.265625 54.9375 -97.265625 C 60.863281 -97.265625 66.519531 -96.28125 71.90625 -94.3125 C 77.300781 -92.351562 82.191406 -89.546875 86.578125 -85.890625 L 81.234375 -79.71875 C 77.578125 -82.738281 73.535156 -85.046875 69.109375 -86.640625 C 64.679688 -88.242188 60.179688 -89.046875 55.609375 -89.046875 C 50.492188 -89.046875 45.515625 -88.039062 40.671875 -86.03125 C 35.835938 -84.019531 31.476562 -81.1875 27.59375 -77.53125 C 23.71875 -73.875 20.640625 -69.535156 18.359375 -64.515625 C 16.078125 -59.492188 14.9375 -53.96875 14.9375 -47.9375 C 14.9375 -41.914062 16.078125 -36.390625 18.359375 -31.359375 C 20.640625 -26.335938 23.71875 -22 27.59375 -18.34375 C 31.476562 -14.695312 35.835938 -11.867188 40.671875 -9.859375 C 45.515625 -7.847656 50.492188 -6.84375 55.609375 -6.84375 C 65.296875 -6.84375 73.882812 -9.953125 81.375 -16.171875 L 86.84375 -10.28125 C 82.457031 -6.625 77.546875 -3.765625 72.109375 -1.703125 C 66.679688 0.347656 60.957031 1.375 54.9375 1.375 Z M 54.9375 1.375 "/></g></g></g><g fill="#0b3d2e" fill-opacity="1"><g transform="translate(89.347834, 137.747673)"><g><path d="M 40.953125 1.375 C 36.847656 1.375 32.671875 0.597656 28.421875 -0.953125 C 24.171875 -2.503906 20.242188 -4.8125 16.640625 -7.875 C 13.035156 -10.9375 10.132812 -14.796875 7.9375 -19.453125 C 5.75 -24.109375 4.65625 -29.492188 4.65625 -35.609375 C 4.65625 -41.734375 5.75 -47.097656 7.9375 -51.703125 C 10.132812 -56.316406 13.035156 -60.175781 16.640625 -63.28125 C 20.242188 -66.382812 24.171875 -68.710938 28.421875 -70.265625 C 32.671875 -71.828125 36.847656 -72.609375 40.953125 -72.609375 C 45.066406 -72.609375 49.242188 -71.828125 53.484375 -70.265625 C 57.734375 -68.710938 61.660156 -66.382812 65.265625 -63.28125 C 68.878906 -60.175781 71.78125 -56.316406 73.96875 -51.703125 C 76.164062 -47.097656 77.265625 -41.734375 77.265625 -35.609375 C 77.265625 -29.492188 76.164062 -24.109375 73.96875 -19.453125 C 71.78125 -14.796875 68.878906 -10.9375 65.265625 -7.875 C 61.660156 -4.8125 57.734375 -2.503906 53.484375 -0.953125 C 49.242188 0.597656 45.066406 1.375 40.953125 1.375 Z M 40.953125 -6.171875 C 44.148438 -6.171875 47.367188 -6.757812 50.609375 -7.9375 C 53.859375 -9.125 56.894531 -10.953125 59.71875 -13.421875 C 62.550781 -15.890625 64.8125 -18.972656 66.5 -22.671875 C 68.195312 -26.367188 69.046875 -30.679688 69.046875 -35.609375 C 69.046875 -40.546875 68.195312 -44.863281 66.5 -48.5625 C 64.8125 -52.257812 62.550781 -55.335938 59.71875 -57.796875 C 56.894531 -60.265625 53.859375 -62.09375 50.609375 -63.28125 C 47.367188 -64.46875 44.148438 -65.0625 40.953125 -65.0625 C 37.847656 -65.0625 34.648438 -64.46875 31.359375 -63.28125 C 28.078125 -62.09375 25.019531 -60.265625 22.1875 -57.796875 C 19.351562 -55.335938 17.09375 -52.257812 15.40625 -48.5625 C 13.71875 -44.863281 12.875 -40.546875 12.875 -35.609375 C 12.875 -30.679688 13.71875 -26.367188 15.40625 -22.671875 C 17.09375 -18.972656 19.351562 -15.890625 22.1875 -13.421875 C 25.019531 -10.953125 28.078125 -9.125 31.359375 -7.9375 C 34.648438 -6.757812 37.847656 -6.171875 40.953125 -6.171875 Z M 40.953125 -6.171875 "/></g></g></g><g fill="#0b3d2e" fill-opacity="1"><g transform="translate(171.256183, 137.747673)"><g><path d="M 8.078125 0 L 8.078125 -71.234375 L 16.4375 -71.234375 L 16.4375 -54.515625 C 16.800781 -55.609375 17.578125 -57.132812 18.765625 -59.09375 C 19.953125 -61.0625 21.617188 -63.070312 23.765625 -65.125 C 25.910156 -67.1875 28.582031 -68.945312 31.78125 -70.40625 C 34.976562 -71.875 38.769531 -72.609375 43.15625 -72.609375 C 47.8125 -72.609375 52.191406 -71.53125 56.296875 -69.375 C 60.410156 -67.226562 63.765625 -63.875 66.359375 -59.3125 C 68.960938 -54.75 70.265625 -48.8125 70.265625 -41.5 L 70.265625 0 L 61.921875 0 L 61.921875 -41.5 C 61.921875 -46.894531 60.957031 -51.328125 59.03125 -54.796875 C 57.113281 -58.265625 54.582031 -60.84375 51.4375 -62.53125 C 48.289062 -64.21875 44.84375 -65.0625 41.09375 -65.0625 C 35.976562 -65.0625 31.6875 -63.875 28.21875 -61.5 C 24.75 -59.125 22.054688 -56.289062 20.140625 -53 C 18.222656 -49.71875 16.988281 -46.660156 16.4375 -43.828125 L 16.4375 0 Z M 8.078125 0 "/></g></g></g><g fill="#0b3d2e" fill-opacity="1"><g transform="translate(248.370546, 137.747673)"><g><path d="M 28.359375 1.375 C 22.054688 1.375 16.644531 -0.269531 12.125 -3.5625 C 7.601562 -6.851562 4.703125 -11.421875 3.421875 -17.265625 L 10.28125 -19.171875 C 11.457031 -14.878906 13.734375 -11.546875 17.109375 -9.171875 C 20.492188 -6.796875 24.289062 -5.609375 28.5 -5.609375 C 31.144531 -5.609375 33.722656 -6.066406 36.234375 -6.984375 C 38.742188 -7.898438 40.796875 -9.335938 42.390625 -11.296875 C 43.992188 -13.265625 44.796875 -15.707031 44.796875 -18.625 C 44.796875 -22.1875 43.5625 -25.019531 41.09375 -27.125 C 38.625 -29.226562 35.289062 -31.007812 31.09375 -32.46875 L 23.15625 -35.203125 C 17.125 -37.304688 12.804688 -40.023438 10.203125 -43.359375 C 7.597656 -46.691406 6.296875 -50.320312 6.296875 -54.25 C 6.296875 -57.894531 7.234375 -61.085938 9.109375 -63.828125 C 10.984375 -66.566406 13.515625 -68.710938 16.703125 -70.265625 C 19.898438 -71.828125 23.460938 -72.609375 27.390625 -72.609375 C 32.867188 -72.609375 37.523438 -71.257812 41.359375 -68.5625 C 45.203125 -65.863281 47.988281 -62.234375 49.71875 -57.671875 L 42.875 -55.484375 C 41.414062 -58.492188 39.429688 -60.929688 36.921875 -62.796875 C 34.410156 -64.671875 31.28125 -65.609375 27.53125 -65.609375 C 23.601562 -65.609375 20.40625 -64.554688 17.9375 -62.453125 C 15.476562 -60.359375 14.25 -57.625 14.25 -54.25 C 14.25 -51.6875 15.09375 -49.351562 16.78125 -47.25 C 18.46875 -45.15625 21.410156 -43.378906 25.609375 -41.921875 L 32.1875 -39.59375 C 36.300781 -38.125 39.882812 -36.519531 42.9375 -34.78125 C 46 -33.050781 48.394531 -30.929688 50.125 -28.421875 C 51.863281 -25.910156 52.734375 -22.738281 52.734375 -18.90625 C 52.734375 -14.332031 51.546875 -10.539062 49.171875 -7.53125 C 46.796875 -4.519531 43.738281 -2.28125 40 -0.8125 C 36.257812 0.644531 32.378906 1.375 28.359375 1.375 Z M 28.359375 1.375 "/></g></g></g><g fill="#0b3d2e" fill-opacity="1"><g transform="translate(303.843512, 137.747673)"><g><path d="M 40.40625 -72.609375 C 44.425781 -72.609375 48.601562 -71.804688 52.9375 -70.203125 C 57.28125 -68.609375 61.253906 -66.164062 64.859375 -62.875 C 68.460938 -59.582031 71.269531 -55.398438 73.28125 -50.328125 C 75.289062 -45.265625 76.023438 -39.21875 75.484375 -32.1875 L 12.875 -32.1875 C 13.425781 -26.34375 15.140625 -21.476562 18.015625 -17.59375 C 20.890625 -13.71875 24.425781 -10.820312 28.625 -8.90625 C 32.832031 -6.988281 37.265625 -6.03125 41.921875 -6.03125 C 51.785156 -6.03125 59.410156 -9 64.796875 -14.9375 L 69.859375 -10.40625 C 66.660156 -6.394531 62.707031 -3.425781 58 -1.5 C 53.300781 0.414062 47.941406 1.375 41.921875 1.375 C 37.347656 1.375 32.847656 0.597656 28.421875 -0.953125 C 23.992188 -2.503906 20 -4.8125 16.4375 -7.875 C 12.875 -10.9375 10.019531 -14.796875 7.875 -19.453125 C 5.726562 -24.109375 4.65625 -29.492188 4.65625 -35.609375 C 4.65625 -41.734375 5.75 -47.097656 7.9375 -51.703125 C 10.132812 -56.316406 12.988281 -60.175781 16.5 -63.28125 C 20.019531 -66.382812 23.878906 -68.710938 28.078125 -70.265625 C 32.285156 -71.828125 36.394531 -72.609375 40.40625 -72.609375 Z M 40.40625 -65.203125 C 36.570312 -65.203125 32.625 -64.242188 28.5625 -62.328125 C 24.5 -60.410156 21.003906 -57.507812 18.078125 -53.625 C 15.160156 -49.75 13.425781 -44.890625 12.875 -39.046875 L 67.9375 -39.046875 C 67.664062 -44.890625 66.046875 -49.726562 63.078125 -53.5625 C 60.109375 -57.394531 56.566406 -60.289062 52.453125 -62.25 C 48.347656 -64.21875 44.332031 -65.203125 40.40625 -65.203125 Z M 40.40625 -65.203125 "/></g></g></g><g fill="#0b3d2e" fill-opacity="1"><g transform="translate(384.108187, 137.747673)"><g><path d="M 8.078125 -88.359375 L 8.078125 -96.84375 L 16.4375 -96.84375 L 16.4375 -88.359375 Z M 8.078125 0 L 8.078125 -71.234375 L 16.4375 -71.234375 L 16.4375 0 Z M 8.078125 0 "/></g></g></g><g fill="#0b3d2e" fill-opacity="1"><g transform="translate(408.625913, 137.747673)"><g><path d="M 8.078125 0 L 8.078125 -96.84375 L 16.4375 -96.84375 L 16.4375 0 Z M 8.078125 0 "/></g></g></g><g fill="#0b3d2e" fill-opacity="1"><g transform="translate(433.151008, 137.747673)"><g/></g></g></g></g><g transform="matrix(1, 0, 0, 1, 231, 607)"><g clip-path="url(#03f154e659)"><g fill="#0b3d2e" fill-opacity="1"><g transform="translate(1.773167, 137.450814)"><g><path d="M 42.1875 1.375 C 35.800781 1.375 30.050781 -0.015625 24.9375 -2.796875 C 19.820312 -5.585938 15.753906 -9.695312 12.734375 -15.125 C 9.722656 -20.5625 8.21875 -27.253906 8.21875 -35.203125 L 8.21875 -95.890625 L 16.71875 -95.890625 L 16.71875 -35.34375 C 16.71875 -28.945312 17.832031 -23.648438 20.0625 -19.453125 C 22.300781 -15.253906 25.359375 -12.101562 29.234375 -10 C 33.117188 -7.894531 37.4375 -6.84375 42.1875 -6.84375 C 47.03125 -6.84375 51.367188 -7.894531 55.203125 -10 C 59.035156 -12.101562 62.070312 -15.253906 64.3125 -19.453125 C 66.550781 -23.648438 67.671875 -28.945312 67.671875 -35.34375 L 67.671875 -95.890625 L 76.15625 -95.890625 L 76.15625 -35.203125 C 76.15625 -27.253906 74.671875 -20.5625 71.703125 -15.125 C 68.742188 -9.695312 64.707031 -5.585938 59.59375 -2.796875 C 54.476562 -0.015625 48.675781 1.375 42.1875 1.375 Z M 42.1875 1.375 "/></g></g></g><g fill="#0b3d2e" fill-opacity="1"><g transform="translate(86.146988, 137.450814)"><g><path d="M 8.078125 0 L 8.078125 -96.84375 L 16.4375 -96.84375 L 16.4375 0 Z M 8.078125 0 "/></g></g></g><g fill="#0b3d2e" fill-opacity="1"><g transform="translate(110.6647, 137.450814)"><g><path d="M 63.828125 -71.234375 L 72.609375 -71.234375 L 41.375 0 L 29.71875 26.03125 L 21.234375 26.03125 L 33.828125 -2.0625 L 3.421875 -71.234375 L 12.1875 -71.234375 L 38.078125 -11.375 Z M 63.828125 -71.234375 "/></g></g></g><g fill="#0b3d2e" fill-opacity="1"><g transform="translate(182.573886, 137.450814)"><g><path d="M 28.359375 1.375 C 22.054688 1.375 16.644531 -0.269531 12.125 -3.5625 C 7.601562 -6.851562 4.703125 -11.421875 3.421875 -17.265625 L 10.28125 -19.171875 C 11.457031 -14.878906 13.734375 -11.546875 17.109375 -9.171875 C 20.492188 -6.796875 24.289062 -5.609375 28.5 -5.609375 C 31.144531 -5.609375 33.722656 -6.066406 36.234375 -6.984375 C 38.742188 -7.898438 40.796875 -9.335938 42.390625 -11.296875 C 43.992188 -13.265625 44.796875 -15.707031 44.796875 -18.625 C 44.796875 -22.1875 43.5625 -25.019531 41.09375 -27.125 C 38.625 -29.226562 35.289062 -31.007812 31.09375 -32.46875 L 23.15625 -35.203125 C 17.125 -37.304688 12.804688 -40.023438 10.203125 -43.359375 C 7.597656 -46.691406 6.296875 -50.320312 6.296875 -54.25 C 6.296875 -57.894531 7.234375 -61.085938 9.109375 -63.828125 C 10.984375 -66.566406 13.515625 -68.710938 16.703125 -70.265625 C 19.898438 -71.828125 23.460938 -72.609375 27.390625 -72.609375 C 32.867188 -72.609375 37.523438 -71.257812 41.359375 -68.5625 C 45.203125 -65.863281 47.988281 -62.234375 49.71875 -57.671875 L 42.875 -55.484375 C 41.414062 -58.492188 39.429688 -60.929688 36.921875 -62.796875 C 34.410156 -64.671875 31.28125 -65.609375 27.53125 -65.609375 C 23.601562 -65.609375 20.40625 -64.554688 17.9375 -62.453125 C 15.476562 -60.359375 14.25 -57.625 14.25 -54.25 C 14.25 -51.6875 15.09375 -49.351562 16.78125 -47.25 C 18.46875 -45.15625 21.410156 -43.378906 25.609375 -41.921875 L 32.1875 -39.59375 C 36.300781 -38.125 39.882812 -36.519531 42.9375 -34.78125 C 46 -33.050781 48.394531 -30.929688 50.125 -28.421875 C 51.863281 -25.910156 52.734375 -22.738281 52.734375 -18.90625 C 52.734375 -14.332031 51.546875 -10.539062 49.171875 -7.53125 C 46.796875 -4.519531 43.738281 -2.28125 40 -0.8125 C 36.257812 0.644531 32.378906 1.375 28.359375 1.375 Z M 28.359375 1.375 "/></g></g></g><g fill="#0b3d2e" fill-opacity="1"><g transform="translate(239.41663, 137.450814)"><g><path d="M 28.359375 1.375 C 22.054688 1.375 16.644531 -0.269531 12.125 -3.5625 C 7.601562 -6.851562 4.703125 -11.421875 3.421875 -17.265625 L 10.28125 -19.171875 C 11.457031 -14.878906 13.734375 -11.546875 17.109375 -9.171875 C 20.492188 -6.796875 24.289062 -5.609375 28.5 -5.609375 C 31.144531 -5.609375 33.722656 -6.066406 36.234375 -6.984375 C 38.742188 -7.898438 40.796875 -9.335938 42.390625 -11.296875 C 43.992188 -13.265625 44.796875 -15.707031 44.796875 -18.625 C 44.796875 -22.1875 43.5625 -25.019531 41.09375 -27.125 C 38.625 -29.226562 35.289062 -31.007812 31.09375 -32.46875 L 23.15625 -35.203125 C 17.125 -37.304688 12.804688 -40.023438 10.203125 -43.359375 C 7.597656 -46.691406 6.296875 -50.320312 6.296875 -54.25 C 6.296875 -57.894531 7.234375 -61.085938 9.109375 -63.828125 C 10.984375 -66.566406 13.515625 -68.710938 16.703125 -70.265625 C 19.898438 -71.828125 23.460938 -72.609375 27.390625 -72.609375 C 32.867188 -72.609375 37.523438 -71.257812 41.359375 -68.5625 C 45.203125 -65.863281 47.988281 -62.234375 49.71875 -57.671875 L 42.875 -55.484375 C 41.414062 -58.492188 39.429688 -60.929688 36.921875 -62.796875 C 34.410156 -64.671875 31.28125 -65.609375 27.53125 -65.609375 C 23.601562 -65.609375 20.40625 -64.554688 17.9375 -62.453125 C 15.476562 -60.359375 14.25 -57.625 14.25 -54.25 C 14.25 -51.6875 15.09375 -49.351562 16.78125 -47.25 C 18.46875 -45.15625 21.410156 -43.378906 25.609375 -41.921875 L 32.1875 -39.59375 C 36.300781 -38.125 39.882812 -36.519531 42.9375 -34.78125 C 46 -33.050781 48.394531 -30.929688 50.125 -28.421875 C 51.863281 -25.910156 52.734375 -22.738281 52.734375 -18.90625 C 52.734375 -14.332031 51.546875 -10.539062 49.171875 -7.53125 C 46.796875 -4.519531 43.738281 -2.28125 40 -0.8125 C 36.257812 0.644531 32.378906 1.375 28.359375 1.375 Z M 28.359375 1.375 "/></g></g></g><g fill="#0b3d2e" fill-opacity="1"><g transform="translate(294.889552, 137.450814)"><g><path d="M 40.40625 -72.609375 C 44.425781 -72.609375 48.601562 -71.804688 52.9375 -70.203125 C 57.28125 -68.609375 61.253906 -66.164062 64.859375 -62.875 C 68.460938 -59.582031 71.269531 -55.398438 73.28125 -50.328125 C 75.289062 -45.265625 76.023438 -39.21875 75.484375 -32.1875 L 12.875 -32.1875 C 13.425781 -26.34375 15.140625 -21.476562 18.015625 -17.59375 C 20.890625 -13.71875 24.425781 -10.820312 28.625 -8.90625 C 32.832031 -6.988281 37.265625 -6.03125 41.921875 -6.03125 C 51.785156 -6.03125 59.410156 -9 64.796875 -14.9375 L 69.859375 -10.40625 C 66.660156 -6.394531 62.707031 -3.425781 58 -1.5 C 53.300781 0.414062 47.941406 1.375 41.921875 1.375 C 37.347656 1.375 32.847656 0.597656 28.421875 -0.953125 C 23.992188 -2.503906 20 -4.8125 16.4375 -7.875 C 12.875 -10.9375 10.019531 -14.796875 7.875 -19.453125 C 5.726562 -24.109375 4.65625 -29.492188 4.65625 -35.609375 C 4.65625 -41.734375 5.75 -47.097656 7.9375 -51.703125 C 10.132812 -56.316406 12.988281 -60.175781 16.5 -63.28125 C 20.019531 -66.382812 23.878906 -68.710938 28.078125 -70.265625 C 32.285156 -71.828125 36.394531 -72.609375 40.40625 -72.609375 Z M 40.40625 -65.203125 C 36.570312 -65.203125 32.625 -64.242188 28.5625 -62.328125 C 24.5 -60.410156 21.003906 -57.507812 18.078125 -53.625 C 15.160156 -49.75 13.425781 -44.890625 12.875 -39.046875 L 67.9375 -39.046875 C 67.664062 -44.890625 66.046875 -49.726562 63.078125 -53.5625 C 60.109375 -57.394531 56.566406 -60.289062 52.453125 -62.25 C 48.347656 -64.21875 44.332031 -65.203125 40.40625 -65.203125 Z M 40.40625 -65.203125 "/></g></g></g><g fill="#0b3d2e" fill-opacity="1"><g transform="translate(375.154286, 137.450814)"><g/></g></g><g fill="#0b3d2e" fill-opacity="1"><g transform="translate(409.259923, 137.450814)"><g><path d="M 16.71875 -8.078125 L 61.5 -8.078125 L 61.5 0 L 8.21875 0 L 8.21875 -95.890625 L 16.71875 -95.890625 Z M 16.71875 -8.078125 "/></g></g></g><g fill="#0b3d2e" fill-opacity="1"><g transform="translate(473.498854, 137.450814)"><g><path d="M 56.296875 -101.375 L 43.421875 -79.59375 L 37.53125 -79.59375 L 46.4375 -101.375 Z M 40.40625 -72.609375 C 44.425781 -72.609375 48.601562 -71.804688 52.9375 -70.203125 C 57.28125 -68.609375 61.253906 -66.164062 64.859375 -62.875 C 68.460938 -59.582031 71.269531 -55.398438 73.28125 -50.328125 C 75.289062 -45.265625 76.023438 -39.21875 75.484375 -32.1875 L 12.875 -32.1875 C 13.425781 -26.34375 15.140625 -21.476562 18.015625 -17.59375 C 20.890625 -13.71875 24.425781 -10.820312 28.625 -8.90625 C 32.832031 -6.988281 37.265625 -6.03125 41.921875 -6.03125 C 51.785156 -6.03125 59.410156 -9 64.796875 -14.9375 L 69.859375 -10.40625 C 66.660156 -6.394531 62.707031 -3.425781 58 -1.5 C 53.300781 0.414062 47.941406 1.375 41.921875 1.375 C 37.347656 1.375 32.847656 0.597656 28.421875 -0.953125 C 23.992188 -2.503906 20 -4.8125 16.4375 -7.875 C 12.875 -10.9375 10.019531 -14.796875 7.875 -19.453125 C 5.726562 -24.109375 4.65625 -29.492188 4.65625 -35.609375 C 4.65625 -41.734375 5.75 -47.097656 7.9375 -51.703125 C 10.132812 -56.316406 12.988281 -60.175781 16.5 -63.28125 C 20.019531 -66.382812 23.878906 -68.710938 28.078125 -70.265625 C 32.285156 -71.828125 36.394531 -72.609375 40.40625 -72.609375 Z M 40.40625 -65.203125 C 36.570312 -65.203125 32.625 -64.242188 28.5625 -62.328125 C 24.5 -60.410156 21.003906 -57.507812 18.078125 -53.625 C 15.160156 -49.75 13.425781 -44.890625 12.875 -39.046875 L 67.9375 -39.046875 C 67.664062 -44.890625 66.046875 -49.726562 63.078125 -53.5625 C 60.109375 -57.394531 56.566406 -60.289062 52.453125 -62.25 C 48.347656 -64.21875 44.332031 -65.203125 40.40625 -65.203125 Z M 40.40625 -65.203125 "/></g></g></g><g fill="#0b3d2e" fill-opacity="1"><g transform="translate(548.969208, 137.450814)"><g><path d="M 34.796875 0 L 3.421875 -71.234375 L 12.1875 -71.234375 L 38.078125 -11.375 L 63.828125 -71.234375 L 72.609375 -71.234375 L 41.375 0 Z M 34.796875 0 "/></g></g></g><g fill="#0b3d2e" fill-opacity="1"><g transform="translate(620.193498, 137.450814)"><g><path d="M 40.953125 1.375 C 36.847656 1.375 32.671875 0.597656 28.421875 -0.953125 C 24.171875 -2.503906 20.242188 -4.8125 16.640625 -7.875 C 13.035156 -10.9375 10.132812 -14.796875 7.9375 -19.453125 C 5.75 -24.109375 4.65625 -29.492188 4.65625 -35.609375 C 4.65625 -41.734375 5.75 -47.097656 7.9375 -51.703125 C 10.132812 -56.316406 13.035156 -60.175781 16.640625 -63.28125 C 20.242188 -66.382812 24.171875 -68.710938 28.421875 -70.265625 C 32.671875 -71.828125 36.847656 -72.609375 40.953125 -72.609375 C 45.066406 -72.609375 49.242188 -71.828125 53.484375 -70.265625 C 57.734375 -68.710938 61.660156 -66.382812 65.265625 -63.28125 C 68.878906 -60.175781 71.78125 -56.316406 73.96875 -51.703125 C 76.164062 -47.097656 77.265625 -41.734375 77.265625 -35.609375 C 77.265625 -29.492188 76.164062 -24.109375 73.96875 -19.453125 C 71.78125 -14.796875 68.878906 -10.9375 65.265625 -7.875 C 61.660156 -4.8125 57.734375 -2.503906 53.484375 -0.953125 C 49.242188 0.597656 45.066406 1.375 40.953125 1.375 Z M 40.953125 -6.171875 C 44.148438 -6.171875 47.367188 -6.757812 50.609375 -7.9375 C 53.859375 -9.125 56.894531 -10.953125 59.71875 -13.421875 C 62.550781 -15.890625 64.8125 -18.972656 66.5 -22.671875 C 68.195312 -26.367188 69.046875 -30.679688 69.046875 -35.609375 C 69.046875 -40.546875 68.195312 -44.863281 66.5 -48.5625 C 64.8125 -52.257812 62.550781 -55.335938 59.71875 -57.796875 C 56.894531 -60.265625 53.859375 -62.09375 50.609375 -63.28125 C 47.367188 -64.46875 44.148438 -65.0625 40.953125 -65.0625 C 37.847656 -65.0625 34.648438 -64.46875 31.359375 -63.28125 C 28.078125 -62.09375 25.019531 -60.265625 22.1875 -57.796875 C 19.351562 -55.335938 17.09375 -52.257812 15.40625 -48.5625 C 13.71875 -44.863281 12.875 -40.546875 12.875 -35.609375 C 12.875 -30.679688 13.71875 -26.367188 15.40625 -22.671875 C 17.09375 -18.972656 19.351562 -15.890625 22.1875 -13.421875 C 25.019531 -10.953125 28.078125 -9.125 31.359375 -7.9375 C 34.648438 -6.757812 37.847656 -6.171875 40.953125 -6.171875 Z M 40.953125 -6.171875 "/></g></g></g><g fill="#0b3d2e" fill-opacity="1"><g transform="translate(702.101831, 137.450814)"><g><path d="M 68.359375 -71.234375 L 68.359375 0 L 60.140625 0 L 60.140625 -16.71875 C 59.773438 -15.613281 59 -14.078125 57.8125 -12.109375 C 56.625 -10.148438 54.957031 -8.144531 52.8125 -6.09375 C 50.664062 -4.039062 47.992188 -2.28125 44.796875 -0.8125 C 41.597656 0.644531 37.804688 1.375 33.421875 1.375 C 28.859375 1.375 24.472656 0.300781 20.265625 -1.84375 C 16.066406 -3.988281 12.664062 -7.34375 10.0625 -11.90625 C 7.46875 -16.476562 6.171875 -22.414062 6.171875 -29.71875 L 6.171875 -71.234375 L 14.515625 -71.234375 L 14.515625 -29.71875 C 14.515625 -24.425781 15.472656 -20.019531 17.390625 -16.5 C 19.316406 -12.988281 21.851562 -10.390625 25 -8.703125 C 28.144531 -7.015625 31.59375 -6.171875 35.34375 -6.171875 C 40.457031 -6.171875 44.75 -7.351562 48.21875 -9.71875 C 51.6875 -12.09375 54.398438 -14.945312 56.359375 -18.28125 C 58.328125 -21.613281 59.585938 -24.648438 60.140625 -27.390625 L 60.140625 -71.234375 Z M 68.359375 -71.234375 "/></g></g></g><g fill="#0b3d2e" fill-opacity="1"><g transform="translate(778.531341, 137.450814)"><g><path d="M 8.078125 0 L 8.078125 -71.234375 L 16.4375 -71.234375 L 16.4375 -54.375 C 16.625 -55.65625 17.21875 -57.300781 18.21875 -59.3125 C 19.21875 -61.320312 20.65625 -63.332031 22.53125 -65.34375 C 24.40625 -67.351562 26.800781 -69.066406 29.71875 -70.484375 C 32.644531 -71.898438 36.070312 -72.609375 40 -72.609375 C 43.195312 -72.609375 46.4375 -71.988281 49.71875 -70.75 C 53.007812 -69.519531 56 -67.554688 58.6875 -64.859375 C 61.382812 -62.171875 63.421875 -58.632812 64.796875 -54.25 C 65.703125 -56.988281 67.25 -59.769531 69.4375 -62.59375 C 71.632812 -65.425781 74.488281 -67.800781 78 -69.71875 C 81.519531 -71.644531 85.65625 -72.609375 90.40625 -72.609375 C 94.519531 -72.609375 98.582031 -71.644531 102.59375 -69.71875 C 106.613281 -67.800781 109.925781 -64.671875 112.53125 -60.328125 C 115.132812 -55.992188 116.4375 -50.085938 116.4375 -42.609375 L 116.4375 0 L 108.078125 0 L 108.078125 -43.15625 C 108.078125 -50.820312 106.226562 -56.390625 102.53125 -59.859375 C 98.832031 -63.328125 94.335938 -65.0625 89.046875 -65.0625 C 84.660156 -65.0625 80.890625 -64.007812 77.734375 -61.90625 C 74.585938 -59.8125 72.078125 -57.117188 70.203125 -53.828125 C 68.328125 -50.546875 67.070312 -47.03125 66.4375 -43.28125 L 66.4375 0 L 58.078125 0 L 58.078125 -43.15625 C 58.078125 -48.269531 57.164062 -52.445312 55.34375 -55.6875 C 53.519531 -58.925781 51.125 -61.296875 48.15625 -62.796875 C 45.1875 -64.304688 42.007812 -65.0625 38.625 -65.0625 C 34.0625 -65.0625 30.226562 -63.921875 27.125 -61.640625 C 24.019531 -59.359375 21.597656 -56.550781 19.859375 -53.21875 C 18.128906 -49.882812 16.988281 -46.570312 16.4375 -43.28125 L 16.4375 0 Z M 8.078125 0 "/></g></g></g><g fill="#0b3d2e" fill-opacity="1"><g transform="translate(901.8048, 137.450814)"><g><path d="M 44.796875 -72.609375 C 48.898438 -72.609375 53.03125 -71.828125 57.1875 -70.265625 C 61.34375 -68.710938 65.203125 -66.40625 68.765625 -63.34375 C 72.328125 -60.289062 75.179688 -56.457031 77.328125 -51.84375 C 79.472656 -47.238281 80.546875 -41.828125 80.546875 -35.609375 C 80.546875 -29.492188 79.472656 -24.109375 77.328125 -19.453125 C 75.179688 -14.796875 72.328125 -10.9375 68.765625 -7.875 C 65.203125 -4.8125 61.34375 -2.503906 57.1875 -0.953125 C 53.03125 0.597656 48.898438 1.375 44.796875 1.375 C 38.398438 1.375 32.710938 -0.242188 27.734375 -3.484375 C 22.765625 -6.734375 19.226562 -10.640625 17.125 -15.203125 L 16.4375 -15.203125 L 16.4375 0 L 8.078125 0 L 8.078125 -96.84375 L 16.4375 -96.84375 L 16.4375 -56.03125 L 17.125 -56.03125 C 19.226562 -60.59375 22.765625 -64.492188 27.734375 -67.734375 C 32.710938 -70.984375 38.398438 -72.609375 44.796875 -72.609375 Z M 44.109375 -6.171875 C 48.492188 -6.171875 52.851562 -7.242188 57.1875 -9.390625 C 61.53125 -11.535156 65.140625 -14.796875 68.015625 -19.171875 C 70.890625 -23.554688 72.328125 -29.035156 72.328125 -35.609375 C 72.328125 -42.191406 70.890625 -47.671875 68.015625 -52.046875 C 65.140625 -56.429688 61.53125 -59.695312 57.1875 -61.84375 C 52.851562 -63.988281 48.492188 -65.0625 44.109375 -65.0625 C 39.816406 -65.0625 35.5 -63.988281 31.15625 -61.84375 C 26.820312 -59.695312 23.238281 -56.429688 20.40625 -52.046875 C 17.582031 -47.671875 16.171875 -42.191406 16.171875 -35.609375 C 16.171875 -29.035156 17.582031 -23.554688 20.40625 -19.171875 C 23.238281 -14.796875 26.820312 -11.535156 31.15625 -9.390625 C 35.5 -7.242188 39.816406 -6.171875 44.109375 -6.171875 Z M 44.109375 -6.171875 "/></g></g></g><g fill="#0b3d2e" fill-opacity="1"><g transform="translate(987.000451, 137.450814)"><g><path d="M 40.40625 1.375 C 36.300781 1.375 32.171875 0.597656 28.015625 -0.953125 C 23.859375 -2.503906 20 -4.8125 16.4375 -7.875 C 12.875 -10.9375 10.019531 -14.796875 7.875 -19.453125 C 5.726562 -24.109375 4.65625 -29.492188 4.65625 -35.609375 C 4.65625 -41.828125 5.726562 -47.238281 7.875 -51.84375 C 10.019531 -56.457031 12.875 -60.289062 16.4375 -63.34375 C 20 -66.40625 23.859375 -68.710938 28.015625 -70.265625 C 32.171875 -71.828125 36.300781 -72.609375 40.40625 -72.609375 C 46.800781 -72.609375 52.488281 -70.984375 57.46875 -67.734375 C 62.445312 -64.492188 65.984375 -60.59375 68.078125 -56.03125 L 68.765625 -56.03125 L 68.765625 -71.234375 L 77.125 -71.234375 L 77.125 0 L 68.765625 0 L 68.765625 -15.203125 L 68.078125 -15.203125 C 65.984375 -10.640625 62.445312 -6.734375 57.46875 -3.484375 C 52.488281 -0.242188 46.800781 1.375 40.40625 1.375 Z M 41.09375 -6.171875 C 45.476562 -6.171875 49.816406 -7.242188 54.109375 -9.390625 C 58.398438 -11.535156 61.960938 -14.796875 64.796875 -19.171875 C 67.628906 -23.554688 69.046875 -29.035156 69.046875 -35.609375 C 69.046875 -42.191406 67.628906 -47.671875 64.796875 -52.046875 C 61.960938 -56.429688 58.398438 -59.695312 54.109375 -61.84375 C 49.816406 -63.988281 45.476562 -65.0625 41.09375 -65.0625 C 36.707031 -65.0625 32.34375 -63.988281 28 -61.84375 C 23.664062 -59.695312 20.0625 -56.429688 17.1875 -52.046875 C 14.3125 -47.671875 12.875 -42.191406 12.875 -35.609375 C 12.875 -29.035156 14.3125 -23.554688 17.1875 -19.171875 C 20.0625 -14.796875 23.664062 -11.535156 28 -9.390625 C 32.34375 -7.242188 36.707031 -6.171875 41.09375 -6.171875 Z M 41.09375 -6.171875 "/></g></g></g></g></g><path stroke-linecap="butt" transform="matrix(0.75, 0, 0, 0.75, 246.192581, 787.078496)" fill="none" stroke-linejoin="miter" d="M -0.00156684 4.499506 L 1391.488138 4.499506 " stroke="#0b3d2e" stroke-width="9" stroke-opacity="1" stroke-miterlimit="4"/></svg>