<svg xmlns="http://www.w3.org/2000/svg" xmlns:xlink="http://www.w3.org/1999/xlink" width="2048" zoomAndPan="magnify" viewBox="0 0 1500 1499.999932" height="2048" preserveAspectRatio="xMidYMid meet" version="1.0"><defs><g/><clipPath id="20677facc7"><path d="M 0 19.980469 L 1500 19.980469 L 1500 1500 L 0 1500 Z M 0 19.980469 " clip-rule="nonzero"/></clipPath><clipPath id="9e1fc931d3"><path d="M 0 0.980469 L 1500 0.980469 L 1500 1481 L 0 1481 Z M 0 0.980469 " clip-rule="nonzero"/></clipPath><clipPath id="8507659784"><rect x="0" width="1500" y="0" height="1481"/></clipPath><clipPath id="5c7e23ce1d"><path d="M 0.00390625 19.980469 L 1500 19.980469 L 1500 1500 L 0.00390625 1500 Z M 0.00390625 19.980469 " clip-rule="nonzero"/></clipPath><clipPath id="b03bf505ac"><rect x="0" width="470" y="0" height="165"/></clipPath><clipPath id="d908a89a66"><rect x="0" width="1076" y="0" height="165"/></clipPath></defs><g clip-path="url(#20677facc7)"><g transform="matrix(1, 0, 0, 1, 0, 19)"><g clip-path="url(#8507659784)"><g clip-path="url(#9e1fc931d3)"><path fill="#0b3d2e" d="M 0 0.980469 L 1533.785156 0.980469 L 1533.785156 1517 L 0 1517 Z M 0 0.980469 " fill-opacity="1" fill-rule="nonzero"/></g></g></g></g><g clip-path="url(#5c7e23ce1d)"><path stroke-linecap="butt" transform="matrix(0.75, 0, 0, 0.75, 0.000034, 19.981249)" fill="none" stroke-linejoin="miter" d="M 0.005163 -0.00104042 L 2047.994925 -0.00104042 L 2047.994925 2021.342885 L 0.005163 2021.342885 Z M 0.005163 -0.00104042 " stroke="#c4b67c" stroke-width="174" stroke-opacity="1" stroke-miterlimit="4"/></g><path fill="#146049" d="M 1345.933594 773.710938 L 1176.539062 746.511719 L 1346.457031 719.226562 C 1349.988281 718.640625 1353.648438 717.507812 1357.003906 715.808594 C 1374.679688 706.851562 1381.761719 685.253906 1372.785156 667.578125 C 1363.828125 649.90625 1342.230469 642.84375 1324.554688 651.800781 L 1171.527344 729.382812 L 1292.957031 607.429688 C 1295.460938 604.878906 1297.75 601.808594 1299.472656 598.472656 C 1308.515625 580.84375 1301.519531 559.203125 1283.890625 550.179688 C 1266.238281 541.136719 1244.621094 548.132812 1235.597656 565.761719 L 1157.382812 718.464844 L 1183.949219 548.4375 C 1184.492188 544.90625 1184.535156 541.070312 1183.949219 537.367188 C 1180.898438 517.773438 1162.523438 504.394531 1142.957031 507.445312 C 1123.363281 510.496094 1109.984375 528.867188 1113.035156 548.4375 L 1139.511719 717.964844 L 1061.058594 564.78125 C 1059.421875 561.601562 1057.199219 558.484375 1054.542969 555.824219 C 1040.550781 541.789062 1017.84375 541.726562 1003.785156 555.714844 C 989.75 569.707031 989.683594 592.414062 1003.675781 606.472656 L 1124.734375 728.054688 L 971.226562 650.253906 C 968.023438 648.664062 964.40625 647.421875 960.679688 646.832031 C 941.109375 643.648438 922.695312 656.964844 919.554688 676.535156 C 916.417969 696.105469 929.734375 714.519531 949.304688 717.660156 L 1118.699219 744.855469 L 948.78125 772.140625 C 945.25 772.730469 941.589844 773.863281 938.230469 775.5625 C 920.558594 784.519531 913.476562 806.117188 922.453125 823.789062 C 931.410156 841.464844 953.007812 848.546875 970.683594 839.570312 L 1123.710938 761.984375 L 1002.28125 883.941406 C 999.777344 886.488281 997.488281 889.5625 995.765625 892.894531 C 986.722656 910.527344 993.71875 932.167969 1011.347656 941.191406 C 1028.976562 950.234375 1050.617188 943.238281 1059.640625 925.609375 L 1137.855469 772.90625 L 1111.289062 942.933594 C 1110.746094 946.464844 1110.703125 950.300781 1111.289062 954.003906 C 1114.339844 973.597656 1132.710938 986.976562 1152.28125 983.925781 C 1171.875 980.875 1185.253906 962.503906 1182.203125 942.933594 L 1155.726562 773.40625 L 1234.179688 926.589844 C 1235.816406 929.769531 1238.039062 932.886719 1240.695312 935.546875 C 1254.6875 949.578125 1277.394531 949.644531 1291.453125 935.652344 C 1305.488281 921.664062 1305.550781 898.953125 1291.5625 884.898438 L 1170.5 763.316406 L 1324.011719 841.117188 C 1327.214844 842.707031 1330.832031 843.949219 1334.558594 844.539062 C 1354.128906 847.675781 1372.542969 834.359375 1375.683594 814.789062 C 1378.820312 795.265625 1365.503906 776.871094 1345.933594 773.710938 Z M 1345.933594 773.710938 " fill-opacity="1" fill-rule="nonzero"/><g transform="matrix(1, 0, 0, 1, 533, 776)"><g clip-path="url(#b03bf505ac)"><g fill="#f4f4f4" fill-opacity="1"><g transform="translate(1.510315, 137.674983)"><g><path d="M 55.03125 1.375 C 48.90625 1.375 42.9375 0.160156 37.125 -2.265625 C 31.3125 -4.691406 26.070312 -8.097656 21.40625 -12.484375 C 16.738281 -16.878906 13.03125 -22.09375 10.28125 -28.125 C 7.539062 -34.164062 6.171875 -40.800781 6.171875 -48.03125 C 6.171875 -55.257812 7.539062 -61.894531 10.28125 -67.9375 C 13.03125 -73.976562 16.738281 -79.191406 21.40625 -83.578125 C 26.070312 -87.972656 31.3125 -91.382812 37.125 -93.8125 C 42.9375 -96.238281 48.90625 -97.453125 55.03125 -97.453125 C 60.976562 -97.453125 66.648438 -96.46875 72.046875 -94.5 C 77.453125 -92.53125 82.347656 -89.71875 86.734375 -86.0625 L 81.390625 -79.875 C 77.734375 -82.894531 73.6875 -85.207031 69.25 -86.8125 C 64.8125 -88.414062 60.300781 -89.21875 55.71875 -89.21875 C 50.59375 -89.21875 45.601562 -88.207031 40.75 -86.1875 C 35.90625 -84.175781 31.539062 -81.335938 27.65625 -77.671875 C 23.769531 -74.015625 20.679688 -69.671875 18.390625 -64.640625 C 16.097656 -59.609375 14.953125 -54.070312 14.953125 -48.03125 C 14.953125 -42 16.097656 -36.460938 18.390625 -31.421875 C 20.679688 -26.390625 23.769531 -22.046875 27.65625 -18.390625 C 31.539062 -14.734375 35.90625 -11.894531 40.75 -9.875 C 45.601562 -7.863281 50.59375 -6.859375 55.71875 -6.859375 C 65.414062 -6.859375 74.019531 -9.972656 81.53125 -16.203125 L 87.015625 -10.296875 C 82.617188 -6.628906 77.695312 -3.765625 72.25 -1.703125 C 66.8125 0.347656 61.070312 1.375 55.03125 1.375 Z M 55.03125 1.375 "/></g></g></g><g fill="#f4f4f4" fill-opacity="1"><g transform="translate(90.30272, 137.674983)"><g><path d="M 41.03125 1.375 C 36.914062 1.375 32.726562 0.597656 28.46875 -0.953125 C 24.21875 -2.515625 20.285156 -4.828125 16.671875 -7.890625 C 13.054688 -10.953125 10.148438 -14.816406 7.953125 -19.484375 C 5.765625 -24.148438 4.671875 -29.550781 4.671875 -35.6875 C 4.671875 -41.8125 5.765625 -47.1875 7.953125 -51.8125 C 10.148438 -56.4375 13.054688 -60.300781 16.671875 -63.40625 C 20.285156 -66.519531 24.21875 -68.851562 28.46875 -70.40625 C 32.726562 -71.96875 36.914062 -72.75 41.03125 -72.75 C 45.15625 -72.75 49.34375 -71.96875 53.59375 -70.40625 C 57.851562 -68.851562 61.789062 -66.519531 65.40625 -63.40625 C 69.019531 -60.300781 71.921875 -56.4375 74.109375 -51.8125 C 76.304688 -47.1875 77.40625 -41.8125 77.40625 -35.6875 C 77.40625 -29.550781 76.304688 -24.148438 74.109375 -19.484375 C 71.921875 -14.816406 69.019531 -10.953125 65.40625 -7.890625 C 61.789062 -4.828125 57.851562 -2.515625 53.59375 -0.953125 C 49.34375 0.597656 45.15625 1.375 41.03125 1.375 Z M 41.03125 -6.171875 C 44.238281 -6.171875 47.46875 -6.765625 50.71875 -7.953125 C 53.96875 -9.148438 57.007812 -10.984375 59.84375 -13.453125 C 62.675781 -15.921875 64.9375 -19.007812 66.625 -22.71875 C 68.320312 -26.425781 69.171875 -30.75 69.171875 -35.6875 C 69.171875 -40.625 68.320312 -44.945312 66.625 -48.65625 C 64.9375 -52.363281 62.675781 -55.453125 59.84375 -57.921875 C 57.007812 -60.390625 53.96875 -62.21875 50.71875 -63.40625 C 47.46875 -64.59375 44.238281 -65.1875 41.03125 -65.1875 C 37.925781 -65.1875 34.722656 -64.59375 31.421875 -63.40625 C 28.128906 -62.21875 25.066406 -60.390625 22.234375 -57.921875 C 19.398438 -55.453125 17.132812 -52.363281 15.4375 -48.65625 C 13.75 -44.945312 12.90625 -40.625 12.90625 -35.6875 C 12.90625 -30.75 13.75 -26.425781 15.4375 -22.71875 C 17.132812 -19.007812 19.398438 -15.921875 22.234375 -13.453125 C 25.066406 -10.984375 28.128906 -9.148438 31.421875 -7.953125 C 34.722656 -6.765625 37.925781 -6.171875 41.03125 -6.171875 Z M 41.03125 -6.171875 "/></g></g></g><g fill="#f4f4f4" fill-opacity="1"><g transform="translate(172.370726, 137.674983)"><g><path d="M 8.09375 0 L 8.09375 -71.375 L 16.46875 -71.375 L 16.46875 -54.625 C 16.832031 -55.71875 17.609375 -57.25 18.796875 -59.21875 C 19.992188 -61.1875 21.664062 -63.195312 23.8125 -65.25 C 25.957031 -67.3125 28.628906 -69.078125 31.828125 -70.546875 C 35.035156 -72.015625 38.835938 -72.75 43.234375 -72.75 C 47.898438 -72.75 52.289062 -71.671875 56.40625 -69.515625 C 60.53125 -67.367188 63.894531 -64.003906 66.5 -59.421875 C 69.101562 -54.847656 70.40625 -48.90625 70.40625 -41.59375 L 70.40625 0 L 62.03125 0 L 62.03125 -41.59375 C 62.03125 -46.988281 61.066406 -51.421875 59.140625 -54.890625 C 57.222656 -58.367188 54.6875 -60.953125 51.53125 -62.640625 C 48.375 -64.335938 44.921875 -65.1875 41.171875 -65.1875 C 36.046875 -65.1875 31.742188 -64 28.265625 -61.625 C 24.796875 -59.25 22.097656 -56.410156 20.171875 -53.109375 C 18.253906 -49.816406 17.019531 -46.753906 16.46875 -43.921875 L 16.46875 0 Z M 8.09375 0 "/></g></g></g><g fill="#f4f4f4" fill-opacity="1"><g transform="translate(249.635402, 137.674983)"><g><path d="M 28.40625 1.375 C 22.09375 1.375 16.671875 -0.269531 12.140625 -3.5625 C 7.617188 -6.863281 4.71875 -11.441406 3.4375 -17.296875 L 10.296875 -19.21875 C 11.484375 -14.914062 13.769531 -11.570312 17.15625 -9.1875 C 20.539062 -6.8125 24.335938 -5.625 28.546875 -5.625 C 31.203125 -5.625 33.785156 -6.082031 36.296875 -7 C 38.816406 -7.914062 40.875 -9.359375 42.46875 -11.328125 C 44.070312 -13.296875 44.875 -15.742188 44.875 -18.671875 C 44.875 -22.234375 43.640625 -25.066406 41.171875 -27.171875 C 38.703125 -29.273438 35.363281 -31.0625 31.15625 -32.53125 L 23.1875 -35.265625 C 17.15625 -37.378906 12.832031 -40.101562 10.21875 -43.4375 C 7.613281 -46.78125 6.3125 -50.414062 6.3125 -54.34375 C 6.3125 -58.007812 7.25 -61.210938 9.125 -63.953125 C 11 -66.703125 13.535156 -68.851562 16.734375 -70.40625 C 19.941406 -71.96875 23.515625 -72.75 27.453125 -72.75 C 32.941406 -72.75 37.609375 -71.394531 41.453125 -68.6875 C 45.296875 -65.988281 48.085938 -62.351562 49.828125 -57.78125 L 42.953125 -55.59375 C 41.492188 -58.601562 39.503906 -61.046875 36.984375 -62.921875 C 34.472656 -64.804688 31.34375 -65.75 27.59375 -65.75 C 23.65625 -65.75 20.453125 -64.691406 17.984375 -62.578125 C 15.515625 -60.472656 14.28125 -57.726562 14.28125 -54.34375 C 14.28125 -51.789062 15.125 -49.457031 16.8125 -47.34375 C 18.507812 -45.238281 21.460938 -43.457031 25.671875 -42 L 32.25 -39.671875 C 36.375 -38.203125 39.96875 -36.597656 43.03125 -34.859375 C 46.09375 -33.117188 48.492188 -30.988281 50.234375 -28.46875 C 51.972656 -25.957031 52.84375 -22.78125 52.84375 -18.9375 C 52.84375 -14.363281 51.648438 -10.566406 49.265625 -7.546875 C 46.890625 -4.523438 43.828125 -2.28125 40.078125 -0.8125 C 36.328125 0.644531 32.4375 1.375 28.40625 1.375 Z M 28.40625 1.375 "/></g></g></g><g fill="#f4f4f4" fill-opacity="1"><g transform="translate(305.216497, 137.674983)"><g><path d="M 40.484375 -72.75 C 44.515625 -72.75 48.703125 -71.945312 53.046875 -70.34375 C 57.390625 -68.738281 61.367188 -66.289062 64.984375 -63 C 68.597656 -59.707031 71.410156 -55.519531 73.421875 -50.4375 C 75.441406 -45.363281 76.175781 -39.300781 75.625 -32.25 L 12.90625 -32.25 C 13.445312 -26.394531 15.160156 -21.519531 18.046875 -17.625 C 20.929688 -13.738281 24.476562 -10.832031 28.6875 -8.90625 C 32.894531 -6.988281 37.332031 -6.03125 42 -6.03125 C 51.882812 -6.03125 59.523438 -9.003906 64.921875 -14.953125 L 70 -10.4375 C 66.789062 -6.40625 62.832031 -3.425781 58.125 -1.5 C 53.414062 0.414062 48.039062 1.375 42 1.375 C 37.425781 1.375 32.921875 0.597656 28.484375 -0.953125 C 24.046875 -2.515625 20.039062 -4.828125 16.46875 -7.890625 C 12.90625 -10.953125 10.046875 -14.816406 7.890625 -19.484375 C 5.742188 -24.148438 4.671875 -29.550781 4.671875 -35.6875 C 4.671875 -41.8125 5.765625 -47.1875 7.953125 -51.8125 C 10.148438 -56.4375 13.007812 -60.300781 16.53125 -63.40625 C 20.0625 -66.519531 23.929688 -68.851562 28.140625 -70.40625 C 32.347656 -71.96875 36.460938 -72.75 40.484375 -72.75 Z M 40.484375 -65.328125 C 36.640625 -65.328125 32.679688 -64.363281 28.609375 -62.4375 C 24.546875 -60.519531 21.046875 -57.617188 18.109375 -53.734375 C 15.179688 -49.847656 13.445312 -44.972656 12.90625 -39.109375 L 68.078125 -39.109375 C 67.804688 -44.972656 66.179688 -49.820312 63.203125 -53.65625 C 60.234375 -57.5 56.6875 -60.40625 52.5625 -62.375 C 48.445312 -64.34375 44.421875 -65.328125 40.484375 -65.328125 Z M 40.484375 -65.328125 "/></g></g></g><g fill="#f4f4f4" fill-opacity="1"><g transform="translate(385.637625, 137.674983)"><g><path d="M 8.09375 -88.53125 L 8.09375 -97.03125 L 16.46875 -97.03125 L 16.46875 -88.53125 Z M 8.09375 0 L 8.09375 -71.375 L 16.46875 -71.375 L 16.46875 0 Z M 8.09375 0 "/></g></g></g><g fill="#f4f4f4" fill-opacity="1"><g transform="translate(410.203142, 137.674983)"><g><path d="M 8.09375 0 L 8.09375 -97.03125 L 16.46875 -97.03125 L 16.46875 0 Z M 8.09375 0 "/></g></g></g><g fill="#f4f4f4" fill-opacity="1"><g transform="translate(434.776041, 137.674983)"><g/></g></g></g></g><g transform="matrix(1, 0, 0, 1, 230, 594)"><g clip-path="url(#d908a89a66)"><g fill="#f4f4f4" fill-opacity="1"><g transform="translate(1.729896, 137.754941)"><g><path d="M 42.265625 1.375 C 35.867188 1.375 30.109375 -0.0195312 24.984375 -2.8125 C 19.859375 -5.601562 15.785156 -9.71875 12.765625 -15.15625 C 9.742188 -20.601562 8.234375 -27.304688 8.234375 -35.265625 L 8.234375 -96.078125 L 16.75 -96.078125 L 16.75 -35.40625 C 16.75 -29 17.867188 -23.691406 20.109375 -19.484375 C 22.347656 -15.273438 25.410156 -12.117188 29.296875 -10.015625 C 33.191406 -7.910156 37.515625 -6.859375 42.265625 -6.859375 C 47.117188 -6.859375 51.46875 -7.910156 55.3125 -10.015625 C 59.15625 -12.117188 62.195312 -15.273438 64.4375 -19.484375 C 66.675781 -23.691406 67.796875 -29 67.796875 -35.40625 L 67.796875 -96.078125 L 76.3125 -96.078125 L 76.3125 -35.265625 C 76.3125 -27.304688 74.820312 -20.601562 71.84375 -15.15625 C 68.875 -9.71875 64.828125 -5.601562 59.703125 -2.8125 C 54.578125 -0.0195312 48.765625 1.375 42.265625 1.375 Z M 42.265625 1.375 "/></g></g></g><g fill="#f4f4f4" fill-opacity="1"><g transform="translate(86.26818, 137.754941)"><g><path d="M 8.09375 0 L 8.09375 -97.03125 L 16.46875 -97.03125 L 16.46875 0 Z M 8.09375 0 "/></g></g></g><g fill="#f4f4f4" fill-opacity="1"><g transform="translate(110.833683, 137.754941)"><g><path d="M 63.953125 -71.375 L 72.75 -71.375 L 41.453125 0 L 29.78125 26.078125 L 21.28125 26.078125 L 33.90625 -2.0625 L 3.4375 -71.375 L 12.21875 -71.375 L 38.15625 -11.390625 Z M 63.953125 -71.375 "/></g></g></g><g fill="#f4f4f4" fill-opacity="1"><g transform="translate(182.883035, 137.754941)"><g><path d="M 28.40625 1.375 C 22.09375 1.375 16.671875 -0.269531 12.140625 -3.5625 C 7.617188 -6.863281 4.71875 -11.441406 3.4375 -17.296875 L 10.296875 -19.21875 C 11.484375 -14.914062 13.769531 -11.570312 17.15625 -9.1875 C 20.539062 -6.8125 24.335938 -5.625 28.546875 -5.625 C 31.203125 -5.625 33.785156 -6.082031 36.296875 -7 C 38.816406 -7.914062 40.875 -9.359375 42.46875 -11.328125 C 44.070312 -13.296875 44.875 -15.742188 44.875 -18.671875 C 44.875 -22.234375 43.640625 -25.066406 41.171875 -27.171875 C 38.703125 -29.273438 35.363281 -31.0625 31.15625 -32.53125 L 23.1875 -35.265625 C 17.15625 -37.378906 12.832031 -40.101562 10.21875 -43.4375 C 7.613281 -46.78125 6.3125 -50.414062 6.3125 -54.34375 C 6.3125 -58.007812 7.25 -61.210938 9.125 -63.953125 C 11 -66.703125 13.535156 -68.851562 16.734375 -70.40625 C 19.941406 -71.96875 23.515625 -72.75 27.453125 -72.75 C 32.941406 -72.75 37.609375 -71.394531 41.453125 -68.6875 C 45.296875 -65.988281 48.085938 -62.351562 49.828125 -57.78125 L 42.953125 -55.59375 C 41.492188 -58.601562 39.503906 -61.046875 36.984375 -62.921875 C 34.472656 -64.804688 31.34375 -65.75 27.59375 -65.75 C 23.65625 -65.75 20.453125 -64.691406 17.984375 -62.578125 C 15.515625 -60.472656 14.28125 -57.726562 14.28125 -54.34375 C 14.28125 -51.789062 15.125 -49.457031 16.8125 -47.34375 C 18.507812 -45.238281 21.460938 -43.457031 25.671875 -42 L 32.25 -39.671875 C 36.375 -38.203125 39.96875 -36.597656 43.03125 -34.859375 C 46.09375 -33.117188 48.492188 -30.988281 50.234375 -28.46875 C 51.972656 -25.957031 52.84375 -22.78125 52.84375 -18.9375 C 52.84375 -14.363281 51.648438 -10.566406 49.265625 -7.546875 C 46.890625 -4.523438 43.828125 -2.28125 40.078125 -0.8125 C 36.328125 0.644531 32.4375 1.375 28.40625 1.375 Z M 28.40625 1.375 "/></g></g></g><g fill="#f4f4f4" fill-opacity="1"><g transform="translate(239.836578, 137.754941)"><g><path d="M 28.40625 1.375 C 22.09375 1.375 16.671875 -0.269531 12.140625 -3.5625 C 7.617188 -6.863281 4.71875 -11.441406 3.4375 -17.296875 L 10.296875 -19.21875 C 11.484375 -14.914062 13.769531 -11.570312 17.15625 -9.1875 C 20.539062 -6.8125 24.335938 -5.625 28.546875 -5.625 C 31.203125 -5.625 33.785156 -6.082031 36.296875 -7 C 38.816406 -7.914062 40.875 -9.359375 42.46875 -11.328125 C 44.070312 -13.296875 44.875 -15.742188 44.875 -18.671875 C 44.875 -22.234375 43.640625 -25.066406 41.171875 -27.171875 C 38.703125 -29.273438 35.363281 -31.0625 31.15625 -32.53125 L 23.1875 -35.265625 C 17.15625 -37.378906 12.832031 -40.101562 10.21875 -43.4375 C 7.613281 -46.78125 6.3125 -50.414062 6.3125 -54.34375 C 6.3125 -58.007812 7.25 -61.210938 9.125 -63.953125 C 11 -66.703125 13.535156 -68.851562 16.734375 -70.40625 C 19.941406 -71.96875 23.515625 -72.75 27.453125 -72.75 C 32.941406 -72.75 37.609375 -71.394531 41.453125 -68.6875 C 45.296875 -65.988281 48.085938 -62.351562 49.828125 -57.78125 L 42.953125 -55.59375 C 41.492188 -58.601562 39.503906 -61.046875 36.984375 -62.921875 C 34.472656 -64.804688 31.34375 -65.75 27.59375 -65.75 C 23.65625 -65.75 20.453125 -64.691406 17.984375 -62.578125 C 15.515625 -60.472656 14.28125 -57.726562 14.28125 -54.34375 C 14.28125 -51.789062 15.125 -49.457031 16.8125 -47.34375 C 18.507812 -45.238281 21.460938 -43.457031 25.671875 -42 L 32.25 -39.671875 C 36.375 -38.203125 39.96875 -36.597656 43.03125 -34.859375 C 46.09375 -33.117188 48.492188 -30.988281 50.234375 -28.46875 C 51.972656 -25.957031 52.84375 -22.78125 52.84375 -18.9375 C 52.84375 -14.363281 51.648438 -10.566406 49.265625 -7.546875 C 46.890625 -4.523438 43.828125 -2.28125 40.078125 -0.8125 C 36.328125 0.644531 32.4375 1.375 28.40625 1.375 Z M 28.40625 1.375 "/></g></g></g><g fill="#f4f4f4" fill-opacity="1"><g transform="translate(295.417629, 137.754941)"><g><path d="M 40.484375 -72.75 C 44.515625 -72.75 48.703125 -71.945312 53.046875 -70.34375 C 57.390625 -68.738281 61.367188 -66.289062 64.984375 -63 C 68.597656 -59.707031 71.410156 -55.519531 73.421875 -50.4375 C 75.441406 -45.363281 76.175781 -39.300781 75.625 -32.25 L 12.90625 -32.25 C 13.445312 -26.394531 15.160156 -21.519531 18.046875 -17.625 C 20.929688 -13.738281 24.476562 -10.832031 28.6875 -8.90625 C 32.894531 -6.988281 37.332031 -6.03125 42 -6.03125 C 51.882812 -6.03125 59.523438 -9.003906 64.921875 -14.953125 L 70 -10.4375 C 66.789062 -6.40625 62.832031 -3.425781 58.125 -1.5 C 53.414062 0.414062 48.039062 1.375 42 1.375 C 37.425781 1.375 32.921875 0.597656 28.484375 -0.953125 C 24.046875 -2.515625 20.039062 -4.828125 16.46875 -7.890625 C 12.90625 -10.953125 10.046875 -14.816406 7.890625 -19.484375 C 5.742188 -24.148438 4.671875 -29.550781 4.671875 -35.6875 C 4.671875 -41.8125 5.765625 -47.1875 7.953125 -51.8125 C 10.148438 -56.4375 13.007812 -60.300781 16.53125 -63.40625 C 20.0625 -66.519531 23.929688 -68.851562 28.140625 -70.40625 C 32.347656 -71.96875 36.460938 -72.75 40.484375 -72.75 Z M 40.484375 -65.328125 C 36.640625 -65.328125 32.679688 -64.363281 28.609375 -62.4375 C 24.546875 -60.519531 21.046875 -57.617188 18.109375 -53.734375 C 15.179688 -49.847656 13.445312 -44.972656 12.90625 -39.109375 L 68.078125 -39.109375 C 67.804688 -44.972656 66.179688 -49.820312 63.203125 -53.65625 C 60.234375 -57.5 56.6875 -60.40625 52.5625 -62.375 C 48.445312 -64.34375 44.421875 -65.328125 40.484375 -65.328125 Z M 40.484375 -65.328125 "/></g></g></g><g fill="#f4f4f4" fill-opacity="1"><g transform="translate(375.838816, 137.754941)"><g/></g></g><g fill="#f4f4f4" fill-opacity="1"><g transform="translate(410.010933, 137.754941)"><g><path d="M 16.75 -8.09375 L 61.625 -8.09375 L 61.625 0 L 8.234375 0 L 8.234375 -96.078125 L 16.75 -96.078125 Z M 16.75 -8.09375 "/></g></g></g><g fill="#f4f4f4" fill-opacity="1"><g transform="translate(474.375079, 137.754941)"><g><path d="M 56.40625 -101.5625 L 43.515625 -79.75 L 37.609375 -79.75 L 46.53125 -101.5625 Z M 40.484375 -72.75 C 44.515625 -72.75 48.703125 -71.945312 53.046875 -70.34375 C 57.390625 -68.738281 61.367188 -66.289062 64.984375 -63 C 68.597656 -59.707031 71.410156 -55.519531 73.421875 -50.4375 C 75.441406 -45.363281 76.175781 -39.300781 75.625 -32.25 L 12.90625 -32.25 C 13.445312 -26.394531 15.160156 -21.519531 18.046875 -17.625 C 20.929688 -13.738281 24.476562 -10.832031 28.6875 -8.90625 C 32.894531 -6.988281 37.332031 -6.03125 42 -6.03125 C 51.882812 -6.03125 59.523438 -9.003906 64.921875 -14.953125 L 70 -10.4375 C 66.789062 -6.40625 62.832031 -3.425781 58.125 -1.5 C 53.414062 0.414062 48.039062 1.375 42 1.375 C 37.425781 1.375 32.921875 0.597656 28.484375 -0.953125 C 24.046875 -2.515625 20.039062 -4.828125 16.46875 -7.890625 C 12.90625 -10.953125 10.046875 -14.816406 7.890625 -19.484375 C 5.742188 -24.148438 4.671875 -29.550781 4.671875 -35.6875 C 4.671875 -41.8125 5.765625 -47.1875 7.953125 -51.8125 C 10.148438 -56.4375 13.007812 -60.300781 16.53125 -63.40625 C 20.0625 -66.519531 23.929688 -68.851562 28.140625 -70.40625 C 32.347656 -71.96875 36.460938 -72.75 40.484375 -72.75 Z M 40.484375 -65.328125 C 36.640625 -65.328125 32.679688 -64.363281 28.609375 -62.4375 C 24.546875 -60.519531 21.046875 -57.617188 18.109375 -53.734375 C 15.179688 -49.847656 13.445312 -44.972656 12.90625 -39.109375 L 68.078125 -39.109375 C 67.804688 -44.972656 66.179688 -49.820312 63.203125 -53.65625 C 60.234375 -57.5 56.6875 -60.40625 52.5625 -62.375 C 48.445312 -64.34375 44.421875 -65.328125 40.484375 -65.328125 Z M 40.484375 -65.328125 "/></g></g></g><g fill="#f4f4f4" fill-opacity="1"><g transform="translate(549.992541, 137.754941)"><g><path d="M 34.859375 0 L 3.4375 -71.375 L 12.21875 -71.375 L 38.15625 -11.390625 L 63.953125 -71.375 L 72.75 -71.375 L 41.453125 0 Z M 34.859375 0 "/></g></g></g><g fill="#f4f4f4" fill-opacity="1"><g transform="translate(621.355663, 137.754941)"><g><path d="M 41.03125 1.375 C 36.914062 1.375 32.726562 0.597656 28.46875 -0.953125 C 24.21875 -2.515625 20.285156 -4.828125 16.671875 -7.890625 C 13.054688 -10.953125 10.148438 -14.816406 7.953125 -19.484375 C 5.765625 -24.148438 4.671875 -29.550781 4.671875 -35.6875 C 4.671875 -41.8125 5.765625 -47.1875 7.953125 -51.8125 C 10.148438 -56.4375 13.054688 -60.300781 16.671875 -63.40625 C 20.285156 -66.519531 24.21875 -68.851562 28.46875 -70.40625 C 32.726562 -71.96875 36.914062 -72.75 41.03125 -72.75 C 45.15625 -72.75 49.34375 -71.96875 53.59375 -70.40625 C 57.851562 -68.851562 61.789062 -66.519531 65.40625 -63.40625 C 69.019531 -60.300781 71.921875 -56.4375 74.109375 -51.8125 C 76.304688 -47.1875 77.40625 -41.8125 77.40625 -35.6875 C 77.40625 -29.550781 76.304688 -24.148438 74.109375 -19.484375 C 71.921875 -14.816406 69.019531 -10.953125 65.40625 -7.890625 C 61.789062 -4.828125 57.851562 -2.515625 53.59375 -0.953125 C 49.34375 0.597656 45.15625 1.375 41.03125 1.375 Z M 41.03125 -6.171875 C 44.238281 -6.171875 47.46875 -6.765625 50.71875 -7.953125 C 53.96875 -9.148438 57.007812 -10.984375 59.84375 -13.453125 C 62.675781 -15.921875 64.9375 -19.007812 66.625 -22.71875 C 68.320312 -26.425781 69.171875 -30.75 69.171875 -35.6875 C 69.171875 -40.625 68.320312 -44.945312 66.625 -48.65625 C 64.9375 -52.363281 62.675781 -55.453125 59.84375 -57.921875 C 57.007812 -60.390625 53.96875 -62.21875 50.71875 -63.40625 C 47.46875 -64.59375 44.238281 -65.1875 41.03125 -65.1875 C 37.925781 -65.1875 34.722656 -64.59375 31.421875 -63.40625 C 28.128906 -62.21875 25.066406 -60.390625 22.234375 -57.921875 C 19.398438 -55.453125 17.132812 -52.363281 15.4375 -48.65625 C 13.75 -44.945312 12.90625 -40.625 12.90625 -35.6875 C 12.90625 -30.75 13.75 -26.425781 15.4375 -22.71875 C 17.132812 -19.007812 19.398438 -15.921875 22.234375 -13.453125 C 25.066406 -10.984375 28.128906 -9.148438 31.421875 -7.953125 C 34.722656 -6.765625 37.925781 -6.171875 41.03125 -6.171875 Z M 41.03125 -6.171875 "/></g></g></g><g fill="#f4f4f4" fill-opacity="1"><g transform="translate(703.423653, 137.754941)"><g><path d="M 68.484375 -71.375 L 68.484375 0 L 60.25 0 L 60.25 -16.75 C 59.882812 -15.644531 59.109375 -14.109375 57.921875 -12.140625 C 56.734375 -10.179688 55.0625 -8.171875 52.90625 -6.109375 C 50.757812 -4.046875 48.082031 -2.28125 44.875 -0.8125 C 41.675781 0.644531 37.878906 1.375 33.484375 1.375 C 28.910156 1.375 24.519531 0.300781 20.3125 -1.84375 C 16.101562 -4 12.691406 -7.363281 10.078125 -11.9375 C 7.472656 -16.507812 6.171875 -22.457031 6.171875 -29.78125 L 6.171875 -71.375 L 14.546875 -71.375 L 14.546875 -29.78125 C 14.546875 -24.476562 15.503906 -20.0625 17.421875 -16.53125 C 19.347656 -13.007812 21.890625 -10.398438 25.046875 -8.703125 C 28.203125 -7.015625 31.65625 -6.171875 35.40625 -6.171875 C 40.53125 -6.171875 44.832031 -7.359375 48.3125 -9.734375 C 51.789062 -12.117188 54.507812 -14.976562 56.46875 -18.3125 C 58.4375 -21.65625 59.695312 -24.703125 60.25 -27.453125 L 60.25 -71.375 Z M 68.484375 -71.375 "/></g></g></g><g fill="#f4f4f4" fill-opacity="1"><g transform="translate(780.002141, 137.754941)"><g><path d="M 8.09375 0 L 8.09375 -71.375 L 16.46875 -71.375 L 16.46875 -54.484375 C 16.65625 -55.765625 17.25 -57.410156 18.25 -59.421875 C 19.257812 -61.441406 20.703125 -63.457031 22.578125 -65.46875 C 24.453125 -67.476562 26.851562 -69.191406 29.78125 -70.609375 C 32.707031 -72.035156 36.140625 -72.75 40.078125 -72.75 C 43.273438 -72.75 46.519531 -72.128906 49.8125 -70.890625 C 53.113281 -69.648438 56.113281 -67.679688 58.8125 -64.984375 C 61.507812 -62.285156 63.546875 -58.738281 64.921875 -54.34375 C 65.835938 -57.09375 67.390625 -59.882812 69.578125 -62.71875 C 71.773438 -65.5625 74.632812 -67.941406 78.15625 -69.859375 C 81.6875 -71.785156 85.828125 -72.75 90.578125 -72.75 C 94.703125 -72.75 98.773438 -71.785156 102.796875 -69.859375 C 106.828125 -67.941406 110.144531 -64.804688 112.75 -60.453125 C 115.351562 -56.109375 116.65625 -50.1875 116.65625 -42.6875 L 116.65625 0 L 108.296875 0 L 108.296875 -43.234375 C 108.296875 -50.921875 106.441406 -56.5 102.734375 -59.96875 C 99.023438 -63.445312 94.519531 -65.1875 89.21875 -65.1875 C 84.820312 -65.1875 81.046875 -64.132812 77.890625 -62.03125 C 74.734375 -59.925781 72.21875 -57.226562 70.34375 -53.9375 C 68.46875 -50.644531 67.207031 -47.125 66.5625 -43.375 L 66.5625 0 L 58.1875 0 L 58.1875 -43.234375 C 58.1875 -48.359375 57.269531 -52.546875 55.4375 -55.796875 C 53.613281 -59.046875 51.210938 -61.421875 48.234375 -62.921875 C 45.265625 -64.429688 42.085938 -65.1875 38.703125 -65.1875 C 34.128906 -65.1875 30.285156 -64.039062 27.171875 -61.75 C 24.066406 -59.46875 21.644531 -56.65625 19.90625 -53.3125 C 18.164062 -49.976562 17.019531 -46.664062 16.46875 -43.375 L 16.46875 0 Z M 8.09375 0 "/></g></g></g><g fill="#f4f4f4" fill-opacity="1"><g transform="translate(903.515887, 137.754941)"><g><path d="M 44.875 -72.75 C 49 -72.75 53.140625 -71.96875 57.296875 -70.40625 C 61.460938 -68.851562 65.328125 -66.539062 68.890625 -63.46875 C 72.460938 -60.40625 75.320312 -56.5625 77.46875 -51.9375 C 79.625 -47.320312 80.703125 -41.90625 80.703125 -35.6875 C 80.703125 -29.550781 79.625 -24.148438 77.46875 -19.484375 C 75.320312 -14.816406 72.460938 -10.953125 68.890625 -7.890625 C 65.328125 -4.828125 61.460938 -2.515625 57.296875 -0.953125 C 53.140625 0.597656 49 1.375 44.875 1.375 C 38.46875 1.375 32.769531 -0.25 27.78125 -3.5 C 22.800781 -6.75 19.257812 -10.660156 17.15625 -15.234375 L 16.46875 -15.234375 L 16.46875 0 L 8.09375 0 L 8.09375 -97.03125 L 16.46875 -97.03125 L 16.46875 -56.140625 L 17.15625 -56.140625 C 19.257812 -60.710938 22.800781 -64.625 27.78125 -67.875 C 32.769531 -71.125 38.46875 -72.75 44.875 -72.75 Z M 44.1875 -6.171875 C 48.582031 -6.171875 52.953125 -7.242188 57.296875 -9.390625 C 61.648438 -11.546875 65.265625 -14.816406 68.140625 -19.203125 C 71.023438 -23.597656 72.46875 -29.09375 72.46875 -35.6875 C 72.46875 -42.269531 71.023438 -47.757812 68.140625 -52.15625 C 65.265625 -56.550781 61.648438 -59.820312 57.296875 -61.96875 C 52.953125 -64.113281 48.582031 -65.1875 44.1875 -65.1875 C 39.894531 -65.1875 35.570312 -64.113281 31.21875 -61.96875 C 26.875 -59.820312 23.285156 -56.550781 20.453125 -52.15625 C 17.617188 -47.757812 16.203125 -42.269531 16.203125 -35.6875 C 16.203125 -29.09375 17.617188 -23.597656 20.453125 -19.203125 C 23.285156 -14.816406 26.875 -11.546875 31.21875 -9.390625 C 35.570312 -7.242188 39.894531 -6.171875 44.1875 -6.171875 Z M 44.1875 -6.171875 "/></g></g></g><g fill="#f4f4f4" fill-opacity="1"><g transform="translate(988.877603, 137.754941)"><g><path d="M 40.484375 1.375 C 36.367188 1.375 32.226562 0.597656 28.0625 -0.953125 C 23.90625 -2.515625 20.039062 -4.828125 16.46875 -7.890625 C 12.90625 -10.953125 10.046875 -14.816406 7.890625 -19.484375 C 5.742188 -24.148438 4.671875 -29.550781 4.671875 -35.6875 C 4.671875 -41.90625 5.742188 -47.320312 7.890625 -51.9375 C 10.046875 -56.5625 12.90625 -60.40625 16.46875 -63.46875 C 20.039062 -66.539062 23.90625 -68.851562 28.0625 -70.40625 C 32.226562 -71.96875 36.367188 -72.75 40.484375 -72.75 C 46.890625 -72.75 52.585938 -71.125 57.578125 -67.875 C 62.566406 -64.625 66.113281 -60.710938 68.21875 -56.140625 L 68.90625 -56.140625 L 68.90625 -71.375 L 77.265625 -71.375 L 77.265625 0 L 68.90625 0 L 68.90625 -15.234375 L 68.21875 -15.234375 C 66.113281 -10.660156 62.566406 -6.75 57.578125 -3.5 C 52.585938 -0.25 46.890625 1.375 40.484375 1.375 Z M 41.171875 -6.171875 C 45.566406 -6.171875 49.914062 -7.242188 54.21875 -9.390625 C 58.519531 -11.546875 62.085938 -14.816406 64.921875 -19.203125 C 67.753906 -23.597656 69.171875 -29.09375 69.171875 -35.6875 C 69.171875 -42.269531 67.753906 -47.757812 64.921875 -52.15625 C 62.085938 -56.550781 58.519531 -59.820312 54.21875 -61.96875 C 49.914062 -64.113281 45.566406 -65.1875 41.171875 -65.1875 C 36.785156 -65.1875 32.414062 -64.113281 28.0625 -61.96875 C 23.71875 -59.820312 20.101562 -56.550781 17.21875 -52.15625 C 14.34375 -47.757812 12.90625 -42.269531 12.90625 -35.6875 C 12.90625 -29.09375 14.34375 -23.597656 17.21875 -19.203125 C 20.101562 -14.816406 23.71875 -11.546875 28.0625 -9.390625 C 32.414062 -7.242188 36.785156 -6.171875 41.171875 -6.171875 Z M 41.171875 -6.171875 "/></g></g></g></g></g><path stroke-linecap="butt" transform="matrix(0.75, 0, 0, 0.75, 230.607729, 780.126824)" fill="none" stroke-linejoin="miter" d="M 0.00219448 3.997568 L 1433.679403 3.997568 " stroke="#f4f4f4" stroke-width="8" stroke-opacity="1" stroke-miterlimit="4"/></svg>